<!DOCTYPE svg PUBLIC "-//W3C//DTD SVG 1.1//EN" "http://www.w3.org/Graphics/SVG/1.1/DTD/svg11.dtd">

<!-- Uploaded to: SVG Repo, www.svgrepo.com, Transformed by: SVG Repo Mixer Tools -->
<svg height="800px" width="800px" version="1.1" id="Layer_1" xmlns="http://www.w3.org/2000/svg" xmlns:xlink="http://www.w3.org/1999/xlink" viewBox="0 0 500.8 500.8" xml:space="preserve" fill="#000000">

<g id="SVGRepo_bgCarrier" stroke-width="0"/>

<g id="SVGRepo_tracerCarrier" stroke-linecap="round" stroke-linejoin="round"/>

<g id="SVGRepo_iconCarrier"> <circle style="fill:#3CC676;" cx="250.3" cy="250.4" r="244"/> <path style="fill:#28A566;" d="M423.1,77.6c95.2,95.2,95.2,249.6,0,344.8s-249.6,95.2-344.8,0"/> <polygon style="fill:#FCCC32;" points="99.1,170.4 250.3,96 401.5,170.4 406.3,424 250.3,500.8 94.3,424 "/> <polyline style="fill:#EFAE0C;" points="250.3,96 401.5,170.4 406.3,424 250.3,500.8 "/> <polygon style="fill:#5E6664;" points="35.9,104 250.3,29.6 464.7,104 406.3,357.6 250.3,434.4 94.3,357.6 "/> <polyline style="fill:#2F423F;" points="250.3,29.6 464.7,104 406.3,357.6 250.3,434.4 94.3,357.6 "/> <polyline style="fill:#16AFC4;" points="219.1,363.2 250.3,379.2 281.5,363.2 "/> <polyline style="fill:#5E6664;" points="159.9,283.2 251.1,254.4 251.1,364 158.3,388.8 94.3,357.6 "/> <polygon style="fill:#404C49;" points="430.3,251.2 340.7,283.2 251.1,254.4 251.1,364 342.3,388.8 406.3,357.6 "/> <polygon style="fill:#FCCC32;" points="178.3,260.8 138.3,245.6 138.3,216.8 178.3,232.8 "/> <polyline style="fill:#EFAE0C;" points="178.3,234.4 178.3,260.8 138.3,245.6 "/> <polygon style="fill:#FCCC32;" points="322.3,260.8 362.3,245.6 362.3,216.8 322.3,232.8 "/> <polyline style="fill:#EFAE0C;" points="322.3,260.8 362.3,245.6 362.3,218.4 "/> <polygon style="fill:#E28FAF;" points="111.1,139.2 35.9,103.2 78.3,0 162.3,73.6 "/> <polyline style="fill:#2F423F;" points="78.3,0 162.3,73.6 111.1,139.2 "/> <polygon style="fill:#FFCFDE;" points="389.5,139.2 464.7,103.2 422.3,0 358.3,73.6 "/> <polyline style="fill:#2F423F;" points="422.3,0 338.3,73.6 389.5,139.2 "/> <polygon style="fill:#FFCFDE;" points="210.3,306.4 219.1,320.8 250.3,336 281.5,321.6 290.3,306.4 "/> <polyline style="fill:#E28FAF;" points="219.1,320.8 250.3,336 281.5,321.6 290.3,306.4 "/> </g>

</svg>